<?xml version="1.0" encoding="UTF-8" standalone="no"?>
<!-- Created with Inkscape (http://www.inkscape.org/) -->

<svg
   width="900"
   height="900"
   viewBox="0 0 238.12499 238.125"
   version="1.1"
   id="svg1"
   inkscape:version="1.2.2 (b0a8486541, 2022-12-01)"
   sodipodi:docname="logo.svg"
   inkscape:export-filename="../public/apple-touch-icon.svg"
   inkscape:export-xdpi="19.200001"
   inkscape:export-ydpi="19.200001"
   xml:space="preserve"
   xmlns:inkscape="http://www.inkscape.org/namespaces/inkscape"
   xmlns:sodipodi="http://sodipodi.sourceforge.net/DTD/sodipodi-0.dtd"
   xmlns="http://www.w3.org/2000/svg"
   xmlns:svg="http://www.w3.org/2000/svg"><sodipodi:namedview
     id="namedview1"
     pagecolor="#ffffff"
     bordercolor="#666666"
     borderopacity="1.0"
     inkscape:showpageshadow="2"
     inkscape:pageopacity="0.0"
     inkscape:pagecheckerboard="true"
     inkscape:deskcolor="#d1d1d1"
     inkscape:document-units="mm"
     inkscape:zoom="0.70710678"
     inkscape:cx="350.72496"
     inkscape:cy="517.60216"
     inkscape:window-width="3200"
     inkscape:window-height="1731"
     inkscape:window-x="0"
     inkscape:window-y="0"
     inkscape:window-maximized="1"
     inkscape:current-layer="layer1"
     showguides="true"
     showgrid="false"><sodipodi:guide
       position="82.777827,37.14956"
       orientation="0,-1"
       id="guide961"
       inkscape:locked="false" /><sodipodi:guide
       position="324.73133,-236.93294"
       orientation="0,-1"
       id="guide964"
       inkscape:locked="false" /></sodipodi:namedview><defs
     id="defs1" /><g
     inkscape:label="Layer 1"
     inkscape:groupmode="layer"
     id="layer1"><g
       id="g2571"
       transform="translate(2.4e-4,-21.237425)"><path
         id="path1652"
         style="fill:#216778;stroke-width:14.6512"
         d="m 205.31998,218.55998 c 7.13142,0 14.26284,-6.02001 14.26284,-15.05001 v -135.45011 -9.03 h 14.26284 c 2.85258,0 4.27886,1.50499 4.27886,4.515 V 233.61 c 0,3.01 -1.42628,4.515 -4.27886,4.515 H 131.28897 c 7.42022,-4.59926 7.31197,-4.77385 16.97964,-9.03 17.1154,-7.52502 35.65711,-10.53502 57.05137,-10.53502 z m 7.64073,-171.57013 v 22.57502 9.03001 129.4301 c 0,3.01 -1.42628,4.515 -4.27886,4.515 -29.95197,0 -54.19879,6.02001 -75.59306,18.06002 -3.8837,2.46802 -7.13142,4.515 -11.41027,7.525 V 230.6 226.085 75.58488 65.04987 c 25.67311,-16.55502 52.77251,-22.57502 87.00333,-22.57502 2.85258,0 4.27886,1.505 4.27886,4.515 z M 32.80455,218.55998 c -7.13142,0 -14.26285,-6.02001 -14.26285,-15.05001 v -135.45011 -9.03 H 4.2788598 C 1.42629,59.02986 0,60.53485 0,63.54486 V 233.61 c 0,3.01 1.42629,4.515 4.2788598,4.515 H 106.83556 c -7.420231,-4.59926 -7.311971,-4.77385 -16.97964,-9.03 C 72.74051,221.56998 54.19881,218.55998 32.80455,218.55998 Z M 25.16381,46.98985 v 22.57502 9.03001 129.4301 c 0,3.01 1.42629,4.515 4.27886,4.515 29.95197,0 54.1988,6.02001 75.59307,18.06002 3.8837,2.46802 7.13142,4.515 11.41026,7.525 V 230.6 226.085 75.58488 65.04987 C 90.77289,48.49485 63.67349,42.47485 29.44267,42.47485 c -2.85257,0 -4.27886,1.505 -4.27886,4.515 z"
         inkscape:export-filename="logo-book-isbn.svg"
         inkscape:export-xdpi="300"
         inkscape:export-ydpi="300" /><path
         id="path18"
         style="color:#000000;fill:#ffffff;stroke-width:1.34432;-inkscape-stroke:none"
         d="m 163.05901,77.905071 12.63758,58.663519 8.18506,-1.76327 -12.63759,-58.663514 z" /><path
         id="path101"
         style="color:#000000;fill:#ffffff;stroke-width:1.34432;-inkscape-stroke:none"
         d="m 152.14579,82.537241 12.16795,56.483499 4.09281,-0.88169 -12.32975,-57.234578 c -1.17817,0.476908 -2.46741,1.010777 -3.93101,1.632769 z" /><path
         id="path99"
         style="color:#000000;fill:#ffffff;stroke-width:1.34432;-inkscape-stroke:none"
         d="m 140.05008,88.130598 11.55288,53.628362 4.09253,-0.88164 -11.76982,-54.635387 c -1.29714,0.616904 -2.58179,1.229676 -3.87559,1.888665 z" /><path
         id="path97"
         style="color:#000000;fill:#ffffff;stroke-width:1.34432;-inkscape-stroke:none"
         d="m 121.74524,102.55657 9.39481,43.61061 8.18505,-1.76327 -10.647,-49.423262 c -0.4216,0.322042 -0.85846,0.644787 -1.23728,0.964923 -1.81341,1.532499 -3.84594,4.046678 -5.69558,6.610999 z" /><path
         style="color:#000000;fill:#ffffff;stroke-width:1.34432;-inkscape-stroke:none"
         d="m 116.44612,149.33249 v -38.67413 c -0.32378,0.54128 -0.52606,0.88935 -0.52606,0.88935 -3.10748,1.53684 -6.33373,1.31911 -9.571,1.14619 l 7.99021,37.09231 z"
         id="path2056" /><path
         style="color:#000000;fill:#ffffff;stroke-width:1.34432;-inkscape-stroke:none"
         d="m 116.44612,155.49335 v -3.62303 l -0.74621,0.16071 z"
         id="path2063" /><path
         style="color:#000000;fill:#ffffff;stroke-width:1.34432;-inkscape-stroke:none"
         d="m 144.26303,145.8774 -22.58467,4.86585 v 5.22087 l 16.42949,-3.53932 -6.80837,42.10131 6.27765,-1.35237 7.22954,-44.77195 z"
         id="path2050" /><path
         style="color:#000000;fill:#ffffff;stroke-width:1.34432;-inkscape-stroke:none"
         d="m 121.67836,124.21671 v 23.98871 l 4.93872,-1.06401 z"
         id="path2048" /><path
         style="color:#000000;fill:#ffffff;stroke-width:1.34432;-inkscape-stroke:none"
         d="m 116.44612,65.049776 v 45.608584 c 0.39237,-0.65592 0.97269,-1.61182 1.71256,-2.77967 l 3.51968,16.33802 V 65.049776 Z"
         id="path95" /><path
         id="path93"
         style="color:#000000;fill:#ffffff;stroke-width:1.34432;-inkscape-stroke:none"
         d="m 97.544192,113.70935 13.766098,63.90208 4.09253,-0.88164 -13.79527,-64.03748 c -1.36456,0.12959 -2.722012,0.41613 -4.063358,1.01704 z" /><path
         id="path91"
         style="color:#000000;fill:#ffffff;stroke-width:1.34432;-inkscape-stroke:none"
         d="m 90.307476,122.19427 12.340254,57.28329 4.09253,-0.88164 -13.177004,-61.16747 c -1.080913,1.41813 -2.165772,3.08229 -3.25578,4.76582 z" /><path
         id="path89"
         style="color:#000000;fill:#ffffff;stroke-width:1.34432;-inkscape-stroke:none"
         d="m 75.712494,131.67625 5.441458,25.25918 8.185059,-1.76326 -5.325192,-24.71948 c -0.807964,0.69316 -1.622332,1.20749 -2.446711,1.41208 -2.110213,0.52371 -4.022475,0.29564 -5.854614,-0.18852 z" /><path
         id="path87"
         style="color:#000000;fill:#ffffff;stroke-width:1.34432;-inkscape-stroke:none"
         d="m 63.452624,130.0559 6.318763,29.33162 4.092527,-0.88163 -6.259474,-29.0564 c -1.322191,-0.0996 -2.689955,0.0332 -4.151816,0.60641 z" /><path
         id="path85"
         style="color:#000000;fill:#ffffff;stroke-width:1.34432;-inkscape-stroke:none"
         d="m 56.312651,138.77599 c -1.209219,2.38455 -2.187553,4.74574 -2.874902,6.53384 l 3.622579,16.81597 4.092527,-0.88163 z" /><path
         style="color:#000000;fill:#ffffff;stroke-width:1.34432;-inkscape-stroke:none"
         d="m 72.584203,205.33199 -1.163447,-5.40071 q 2.48886,0.56954 4.929727,0.62727 2.440874,0.0578 4.672347,-0.42296 5.950593,-1.2819 8.227358,-5.88805 2.300198,-4.64189 1.013967,-12.78039 -1.181889,2.89599 -3.53904,4.81662 -2.357152,1.92063 -5.570472,2.61286 -6.664664,1.43573 -11.41592,-1.6871 -4.727829,-3.15861 -6.213752,-10.05624 -1.454311,-6.7509 1.713182,-11.70248 3.167495,-4.95159 9.891664,-6.40014 7.70602,-1.66007 13.010718,3.30922 5.32813,4.93354 7.718258,16.02849 2.232051,10.36115 -1.432275,17.63116 -3.640898,7.23425 -12.060988,9.04815 -2.261227,0.48712 -4.676805,0.54679 -2.415574,0.0597 -5.104522,-0.28249 z m 7.958179,-21.15626 q 4.046403,-0.8717 5.808842,-4.10775 1.792189,-3.24248 0.76785,-7.99745 -1.01802,-4.72563 -3.986305,-6.94258 -2.944853,-2.2527 -6.991256,-1.381 -4.046403,0.87169 -5.832272,4.14351 -1.762436,3.23606 -0.744417,7.96169 1.02434,4.75498 3.962872,6.97833 2.968283,2.21695 7.014686,1.34525 z"
         id="path957" /><path
         style="color:#000000;fill:#ffffff;stroke-width:1.34432;-inkscape-stroke:none"
         d="m 170.85996,163.33695 q -4.28443,0.92298 -6.26706,3.71505 -1.95286,2.78567 -1.09924,6.74815 0.85361,3.96247 3.78023,5.69697 2.95638,1.72809 7.24081,0.80512 4.28444,-0.92298 6.26705,-3.71505 1.9763,-2.82142 1.12901,-6.75455 -0.85362,-3.96248 -3.81,-5.69057 -2.92662,-1.7345 -7.2408,-0.80512 z m -6.55389,-1.22952 q -4.07022,-0.10601 -6.80493,-2.25042 -2.70497,-2.15082 -3.51433,-5.90784 -1.13183,-5.25394 1.98919,-9.12055 3.15078,-3.87299 9.75593,-5.2959 6.63492,-1.42933 11.07115,0.80923 4.43623,2.23858 5.56806,7.49253 0.80936,3.75702 -0.79986,6.83722 -1.57946,3.07379 -5.21527,4.83987 4.55893,0.0622 7.5949,2.44881 3.06573,2.38024 3.96994,6.57754 1.37211,6.36932 -1.85156,10.62658 -3.19391,4.25086 -10.54289,5.83401 -7.34898,1.58316 -12.0396,-0.96918 -4.66087,-2.55874 -6.03298,-8.92805 -0.9042,-4.1973 0.90955,-7.6287 1.81376,-3.4314 5.9427,-5.36515 z m -4.21878,-8.8889 q 0.73348,3.40481 3.2867,4.85118 2.58296,1.43997 6.48059,0.60032 3.86789,-0.83324 5.62885,-3.20899 1.79073,-2.38217 1.05725,-5.78698 -0.73348,-3.40479 -3.34621,-4.83835 -2.58296,-1.43996 -6.45085,-0.60672 -3.89763,0.83965 -5.65859,3.21539 -1.73121,2.36936 -0.99774,5.77415 z"
         id="path953" /></g></g></svg>
